HIERARCHY
ROOT hip
{
	OFFSET 0.000000 0.000000 0.000000 
	CHANNELS 6 Xposition Yposition Zposition Xrotation Zrotation Yrotation
	JOINT abdomen
	{
		OFFSET 0.000000 3.402643 0.000000 
		CHANNELS 3 Xrotation Zrotation Yrotation
		JOINT chest
		{
			OFFSET 0.000000 8.438565 -0.680529 
			CHANNELS 3 Xrotation Zrotation Yrotation
			JOINT neck
			{
				OFFSET 0.000000 10.207942 -0.272212 
				CHANNELS 3 Xrotation Zrotation Yrotation
				JOINT head
				{
					OFFSET 0.000000 3.130431 0.000000 
					CHANNELS 3 Xrotation Zrotation Yrotation
					End Site
					{
						OFFSET 0.000000 3.130435 0.000000 
					}
				}
			}
			JOINT lCollar
			{
				OFFSET 3.470700 6.669187 -0.816635 
				CHANNELS 3 Yrotation Zrotation Xrotation
				JOINT lShldr
				{
					OFFSET 3.198488 0.000000 0.000000 
					CHANNELS 3 Zrotation Yrotation Xrotation
					JOINT lForeArm
					{
						OFFSET 10.139888 0.000000 0.000000 
						CHANNELS 3 Yrotation Zrotation Xrotation
						JOINT lHand
						{
							OFFSET 8.370511 0.000000 0.000000 
							CHANNELS 3 Zrotation Yrotation Xrotation
							End Site
							{
								OFFSET 4.083176 0.000000 0.000000 
							}
						}
					}
				}
			}
			JOINT rCollar
			{
				OFFSET -3.470700 6.669187 -0.816635 
				CHANNELS 3 Yrotation Zrotation Xrotation
				JOINT rShldr
				{
					OFFSET -3.198488 0.000000 0.000000 
					CHANNELS 3 Zrotation Yrotation Xrotation
					JOINT rForeArm
					{
						OFFSET -10.139888 0.000000 0.000000 
						CHANNELS 3 Yrotation Zrotation Xrotation
						JOINT rHand
						{
							OFFSET -8.370511 0.000000 0.000000 
							CHANNELS 3 Zrotation Yrotation Xrotation
							End Site
							{
								OFFSET -4.083176 0.000000 0.000000 
							}
						}
					}
				}
			}
		}
	}
	JOINT lThigh
	{
		OFFSET 5.308129 -1.633274 1.361059 
		CHANNELS 3 Xrotation Zrotation Yrotation
		JOINT lShin
		{
			OFFSET -2.041588 -20.007561 0.000000 
			CHANNELS 3 Xrotation Zrotation Yrotation
			JOINT lFoot
			{
				OFFSET 0.000000 -19.190928 -1.224953 
				CHANNELS 3 Xrotation Yrotation Zrotation
				End Site
				{
					OFFSET 0.000000 -2.449906 4.627600 
				}
			}
		}
	}
	JOINT rThigh
	{
		OFFSET -5.308129 -1.633274 1.361059 
		CHANNELS 3 Xrotation Zrotation Yrotation
		JOINT rShin
		{
			OFFSET 2.041588 -20.007561 0.000000 
			CHANNELS 3 Xrotation Zrotation Yrotation
			JOINT rFoot
			{
				OFFSET 0.000000 -19.190928 -1.224953 
				CHANNELS 3 Xrotation Yrotation Zrotation
				End Site
				{
					OFFSET 0.000000 -2.449906 4.627600 
				}
			}
		}
	}
}
MOTION
Frames: 11
Frame Time: 0.033333
0.124633 48.916740 -0.011330 -17.314453 -2.216797 -2.373425 5.019532 -0.156250 0.156223 17.070311 5.546875 14.248047 49.208984 -25.507813 -26.537411 -30.673826 7.802735 54.786484 -1.015625 -17.451172 -0.302734 -48.837891 13.486329 -36.347656 -20.781250 -2.626953 -12.607422 1.650391 -3.398438 -3.506438 14.941406 9.765626 -2.578125 49.072266 0.634766 4.873157 91.162109 1.591797 -19.404570 -1.660156 3.388672 -3.505859 -0.663401 7.225598 0.351704 36.937275 2.445038 1.176120 -7.830393 1.921000 -3.857249 17.278017 -0.761445 0.067929 7.937888 6.411347 -12.864389 -9.801030 2.858148 -7.146302 
0.249266 48.928074 0.022661 -16.494141 -2.724609 -3.760230 5.019532 -0.156250 0.156223 16.054688 6.513672 16.132813 48.603512 -26.279297 -26.679689 -29.619139 7.177735 55.128170 0.322266 -17.060547 0.090756 -47.060547 14.580079 -52.790512 -16.201174 -2.617188 -18.203125 1.650391 -3.398438 -3.506438 13.964844 9.003906 -2.216797 45.380863 0.146484 1.777371 84.306641 1.669922 -20.000284 -1.660156 3.388672 -3.505859 -3.383959 6.007974 0.265044 33.901077 1.673145 -4.452667 -7.107946 1.896039 -3.839425 16.295439 -0.966610 0.058314 8.377291 6.479553 -11.444235 -9.801688 2.825024 -7.140565 
0.362569 48.973389 0.215276 -17.216797 -3.359375 -5.996666 5.019532 -0.156250 0.156223 16.718750 7.148438 18.779297 47.802734 -27.021482 -26.625530 -28.769531 6.650391 55.166016 1.806641 -16.416016 0.507812 -44.355469 15.742189 -66.738281 -14.736328 -1.884766 -24.140305 1.650391 -3.398438 -3.506438 13.017579 8.242188 -1.886165 41.708981 -1.035156 -1.445313 76.914063 1.777344 -20.576473 -1.660156 3.388672 -3.505859 -2.734204 5.839601 0.246424 28.215038 -1.280481 -4.072015 -5.512249 1.903510 -3.863581 16.992910 -1.220177 0.039698 8.921479 6.167382 -9.092252 -9.987745 2.834656 -7.125037 
0.464542 49.041374 0.464542 -18.740234 -4.033203 -8.194046 5.019532 -0.156250 0.156223 18.457031 7.470702 21.298826 46.943359 -27.636719 -26.410778 -28.261719 6.269531 54.775391 3.496094 -15.556641 0.930353 -40.859375 16.015625 -75.312500 -14.462890 -1.699219 -25.683302 1.650391 -3.398438 -3.506438 12.128906 7.392579 -1.573522 38.359375 -2.636719 -5.136719 69.121101 1.826172 -21.181952 -1.660156 3.388672 -3.505859 0.107674 6.196400 0.259436 20.560003 -4.579505 0.490682 -3.773652 1.932857 -3.847552 18.560648 -1.591842 0.014651 9.519758 5.701703 -6.768784 -10.251978 2.841254 -7.110712 
0.577845 49.109356 0.645826 -20.185547 -4.355469 -9.405038 5.019532 -0.156250 0.156223 20.205080 7.558594 22.608707 46.064457 -28.125000 -26.078823 -28.193357 6.162109 53.956127 4.931641 -14.677735 1.242709 -36.796879 14.736329 -79.589844 -14.394531 -1.806641 -25.390623 1.650391 -3.398438 -3.506438 11.328126 6.484375 -1.290165 35.302734 -4.873046 -9.404297 61.328125 1.875000 -21.816727 -1.660156 3.388672 -3.505859 3.259294 6.595539 0.269208 12.656969 -5.728149 1.869067 -1.473864 1.922580 -3.861347 19.877403 -1.981943 -0.009733 10.172124 5.241637 -5.379840 -10.593739 2.829152 -7.116087 
0.759129 49.143345 0.634496 -20.595703 -3.945313 -8.994813 5.019532 -0.156250 0.156223 20.898439 7.480469 22.022753 45.146484 -28.466799 -25.610125 -28.535156 6.406250 52.891193 5.498047 -13.974609 1.320718 -32.626953 12.431641 -81.589699 -14.394531 -1.865234 -25.117186 1.650391 -3.398438 -3.506438 10.390625 5.527344 -1.006800 32.353512 -7.412109 -14.082031 53.593750 1.943359 -22.500000 -1.660156 3.388672 -3.505859 4.633776 6.847791 0.296016 6.346736 -5.145922 0.180965 1.284378 1.919716 -3.852467 19.781607 -2.392510 -0.054003 11.000575 5.035604 -5.715445 -10.867122 2.866883 -7.108025 
1.053717 49.132019 0.237936 -18.789063 -2.500000 -6.630859 5.019532 -0.156250 0.156223 19.560549 7.314454 18.956322 44.121094 -28.681637 -24.960936 -29.111328 6.943359 51.806644 5.117188 -13.515624 1.183923 -28.828125 9.785156 -81.863571 -14.521484 -1.777344 -25.312197 1.650391 -3.398438 -3.506438 9.277344 4.423828 -0.712891 29.687500 -9.580077 -19.023436 46.240238 2.041016 -23.232771 -1.660156 3.388672 -3.505859 1.942144 6.909658 0.303050 3.382703 -3.725027 -3.459571 3.875003 1.912676 -3.885664 16.866196 -2.977254 -0.094911 11.970315 5.340219 -8.111735 -10.817582 2.845131 -7.129650 
1.382296 49.120682 -0.271927 -16.357422 -1.005859 -4.218750 5.019532 -0.156250 0.156223 17.763672 6.943360 14.962117 42.900391 -28.769529 -24.106262 -29.697266 7.626953 50.869137 4.082031 -13.144531 0.917969 -25.615232 7.558594 -80.203789 -14.697266 -1.767578 -24.951172 1.650391 -3.398438 -3.506438 8.408203 3.339844 -0.488281 27.617188 -11.679687 -23.740231 39.882813 2.138672 -23.906612 -1.660156 3.388672 -3.505859 -1.785634 7.474448 0.333630 2.358148 -2.291326 -5.885058 5.914212 1.895120 -3.868320 13.070585 -3.846475 -0.131731 13.318696 5.643195 -10.419366 -10.700703 2.831458 -7.125678 
1.665552 49.166008 -0.589175 -15.332031 0.156250 -3.730468 5.019532 -0.156250 0.156223 17.343750 5.917970 11.573273 41.406254 -28.720703 -22.973442 -30.205078 8.242188 50.138123 2.607422 -12.812501 0.568572 -23.037109 6.289063 -76.699219 -14.785157 -1.845703 -24.580078 1.650391 -3.398438 -3.506438 8.066406 2.431641 -0.342211 26.523438 -14.531250 -27.717293 35.019531 2.167969 -24.492189 -1.660156 3.388672 -3.505859 -2.887534 9.103364 0.451326 1.756104 -1.336471 -5.132287 7.616997 1.892127 -3.875371 10.720513 -5.087261 -0.201291 15.030716 5.443883 -10.561110 -10.788981 2.820857 -7.119903 
1.982800 49.267982 -0.815782 -14.794921 1.279297 -4.706813 5.019532 -0.156250 0.156223 17.412109 4.394532 8.505859 39.667969 -28.593750 -21.664829 -30.673830 8.701173 49.667965 1.064453 -12.460938 0.226717 -21.669922 5.507813 -70.234375 -14.677735 -1.679688 -25.566406 1.650391 -3.398438 -3.506438 7.802735 1.738281 -0.234671 26.386721 -17.773439 -30.960011 31.425783 2.255860 -24.853903 -1.660156 3.388672 -3.505859 -2.634965 11.341494 0.583311 2.012542 -0.584125 -2.665214 9.464658 1.906738 -3.888223 8.794170 -6.657172 -0.318121 16.865049 5.038595 -9.304893 -10.915645 2.832880 -7.124629 
2.368031 49.358620 -1.053717 -14.140625 2.392578 -6.679688 5.019532 -0.156250 0.156223 17.607422 2.578125 5.449219 37.861328 -28.417971 -20.317146 -31.289063 9.072266 49.444904 -0.234375 -12.099608 -0.058594 -22.392576 5.058594 -60.751091 -14.560546 -1.757813 -25.478216 1.650391 -3.398438 -3.506438 7.021484 1.230469 -0.146694 27.617188 -20.019531 -33.837887 28.740234 2.314453 -25.078123 -1.660156 3.388672 -3.505859 -1.707849 13.721951 0.735743 3.124213 -0.009822 -0.079965 11.592882 1.945142 -3.865697 6.449935 -8.498482 -0.473336 18.847569 4.605363 -7.117608 -11.100614 2.825788 -7.138777 
